<mxfile host="app.diagrams.net" modified="2024-04-22T14:35:45.049Z" agent="Mozilla/5.0 (Windows NT 10.0; Win64; x64) AppleWebKit/537.36 (KHTML, like Gecko) Chrome/124.0.0.0 Safari/537.36" etag="YqdAUzrTGqIVVE_kRSoc" version="24.2.7" type="github">
  <diagram name="Page-1" id="BY7IwDNdgKhXzsTORp1q">
    <mxGraphModel dx="1744" dy="931" grid="1" gridSize="10" guides="1" tooltips="1" connect="1" arrows="1" fold="1" page="1" pageScale="1" pageWidth="850" pageHeight="1100" math="0" shadow="0">
      <root>
        <mxCell id="0" />
        <mxCell id="1" parent="0" />
        <mxCell id="uxEyV9D7KYgsBCDAAckX-2" value="&lt;font style=&quot;font-size: 20px;&quot;&gt;Animal&lt;/font&gt;" style="text;align=center;html=1;verticalAlign=middle;whiteSpace=wrap;rounded=0;fillColor=#f8cecc;strokeColor=#b85450;" vertex="1" parent="1">
          <mxGeometry x="60" y="520" width="120" height="50" as="geometry" />
        </mxCell>
        <mxCell id="uxEyV9D7KYgsBCDAAckX-3" value="&lt;font style=&quot;font-size: 15px;&quot;&gt;Pinguin&lt;/font&gt;" style="text;html=1;align=center;verticalAlign=middle;resizable=0;points=[];autosize=1;strokeColor=#6c8ebf;fillColor=#dae8fc;" vertex="1" parent="1">
          <mxGeometry x="225" y="330" width="70" height="30" as="geometry" />
        </mxCell>
        <mxCell id="uxEyV9D7KYgsBCDAAckX-4" value="&lt;font style=&quot;font-size: 15px;&quot;&gt;Elephant&lt;/font&gt;" style="text;html=1;align=center;verticalAlign=middle;resizable=0;points=[];autosize=1;strokeColor=#6c8ebf;fillColor=#dae8fc;" vertex="1" parent="1">
          <mxGeometry x="220" y="450" width="80" height="30" as="geometry" />
        </mxCell>
        <mxCell id="uxEyV9D7KYgsBCDAAckX-5" value="&lt;font style=&quot;font-size: 15px;&quot;&gt;Duck&lt;/font&gt;" style="text;html=1;align=center;verticalAlign=middle;resizable=0;points=[];autosize=1;strokeColor=#6c8ebf;fillColor=#dae8fc;" vertex="1" parent="1">
          <mxGeometry x="230" y="240" width="60" height="30" as="geometry" />
        </mxCell>
        <mxCell id="uxEyV9D7KYgsBCDAAckX-11" value="" style="endArrow=none;html=1;rounded=0;exitX=0.331;exitY=0.027;exitDx=0;exitDy=0;exitPerimeter=0;" edge="1" parent="1" source="uxEyV9D7KYgsBCDAAckX-2">
          <mxGeometry width="50" height="50" relative="1" as="geometry">
            <mxPoint x="100" y="460" as="sourcePoint" />
            <mxPoint x="100" y="250" as="targetPoint" />
            <Array as="points">
              <mxPoint x="100" y="350" />
            </Array>
          </mxGeometry>
        </mxCell>
        <mxCell id="uxEyV9D7KYgsBCDAAckX-15" value="&lt;font style=&quot;font-size: 15px;&quot;&gt;Move&lt;/font&gt;" style="text;html=1;align=center;verticalAlign=middle;resizable=0;points=[];autosize=1;strokeColor=#9673a6;fillColor=#e1d5e7;" vertex="1" parent="1">
          <mxGeometry x="290" y="530" width="60" height="30" as="geometry" />
        </mxCell>
        <mxCell id="uxEyV9D7KYgsBCDAAckX-17" value="&lt;font style=&quot;font-size: 15px;&quot;&gt;Eat&lt;/font&gt;" style="whiteSpace=wrap;html=1;fillColor=#e1d5e7;strokeColor=#9673a6;gradientColor=none;" vertex="1" parent="1">
          <mxGeometry x="200" y="620" width="60" height="30" as="geometry" />
        </mxCell>
        <mxCell id="uxEyV9D7KYgsBCDAAckX-24" value="" style="endArrow=classic;html=1;rounded=0;" edge="1" parent="1">
          <mxGeometry width="50" height="50" relative="1" as="geometry">
            <mxPoint x="100" y="465" as="sourcePoint" />
            <mxPoint x="220" y="464.5" as="targetPoint" />
          </mxGeometry>
        </mxCell>
        <mxCell id="uxEyV9D7KYgsBCDAAckX-25" value="" style="endArrow=classic;html=1;rounded=0;" edge="1" parent="1">
          <mxGeometry width="50" height="50" relative="1" as="geometry">
            <mxPoint x="100" y="345" as="sourcePoint" />
            <mxPoint x="225" y="344.5" as="targetPoint" />
            <Array as="points">
              <mxPoint x="185" y="344.5" />
            </Array>
          </mxGeometry>
        </mxCell>
        <mxCell id="uxEyV9D7KYgsBCDAAckX-26" value="" style="endArrow=classic;html=1;rounded=0;" edge="1" parent="1">
          <mxGeometry width="50" height="50" relative="1" as="geometry">
            <mxPoint x="100" y="255" as="sourcePoint" />
            <mxPoint x="230" y="254.5" as="targetPoint" />
          </mxGeometry>
        </mxCell>
        <mxCell id="uxEyV9D7KYgsBCDAAckX-27" value="" style="endArrow=classic;html=1;rounded=0;" edge="1" parent="1">
          <mxGeometry width="50" height="50" relative="1" as="geometry">
            <mxPoint x="180" y="544.5" as="sourcePoint" />
            <mxPoint x="290" y="545" as="targetPoint" />
            <Array as="points">
              <mxPoint x="210" y="544.5" />
            </Array>
          </mxGeometry>
        </mxCell>
        <mxCell id="uxEyV9D7KYgsBCDAAckX-28" value="" style="endArrow=classic;html=1;rounded=0;" edge="1" parent="1">
          <mxGeometry width="50" height="50" relative="1" as="geometry">
            <mxPoint x="180" y="570" as="sourcePoint" />
            <mxPoint x="230" y="620" as="targetPoint" />
            <Array as="points">
              <mxPoint x="200" y="590" />
            </Array>
          </mxGeometry>
        </mxCell>
        <mxCell id="uxEyV9D7KYgsBCDAAckX-29" value="" style="endArrow=classic;html=1;rounded=0;" edge="1" parent="1">
          <mxGeometry width="50" height="50" relative="1" as="geometry">
            <mxPoint x="290" y="240" as="sourcePoint" />
            <mxPoint x="350" y="210" as="targetPoint" />
          </mxGeometry>
        </mxCell>
        <mxCell id="uxEyV9D7KYgsBCDAAckX-30" value="" style="endArrow=classic;html=1;rounded=0;" edge="1" parent="1">
          <mxGeometry width="50" height="50" relative="1" as="geometry">
            <mxPoint x="290" y="258" as="sourcePoint" />
            <mxPoint x="350" y="258" as="targetPoint" />
          </mxGeometry>
        </mxCell>
        <mxCell id="uxEyV9D7KYgsBCDAAckX-31" value="&lt;font style=&quot;font-size: 15px;&quot;&gt;Swim&lt;/font&gt;" style="text;html=1;align=center;verticalAlign=middle;resizable=0;points=[];autosize=1;strokeColor=#9673a6;fillColor=#e1d5e7;" vertex="1" parent="1">
          <mxGeometry x="350" y="200" width="60" height="30" as="geometry" />
        </mxCell>
        <mxCell id="uxEyV9D7KYgsBCDAAckX-32" value="&lt;font style=&quot;font-size: 15px;&quot;&gt;Fly&lt;/font&gt;" style="text;html=1;align=center;verticalAlign=middle;resizable=0;points=[];autosize=1;strokeColor=#9673a6;fillColor=#e1d5e7;" vertex="1" parent="1">
          <mxGeometry x="350" y="240" width="40" height="30" as="geometry" />
        </mxCell>
        <mxCell id="uxEyV9D7KYgsBCDAAckX-35" value="&lt;font style=&quot;font-size: 15px;&quot;&gt;Swim&lt;/font&gt;" style="text;html=1;align=center;verticalAlign=middle;resizable=0;points=[];autosize=1;strokeColor=#9673a6;fillColor=#e1d5e7;" vertex="1" parent="1">
          <mxGeometry x="350" y="300" width="60" height="30" as="geometry" />
        </mxCell>
        <mxCell id="uxEyV9D7KYgsBCDAAckX-36" value="" style="endArrow=classic;html=1;rounded=0;entryX=-0.05;entryY=0.667;entryDx=0;entryDy=0;entryPerimeter=0;" edge="1" parent="1" target="uxEyV9D7KYgsBCDAAckX-35">
          <mxGeometry width="50" height="50" relative="1" as="geometry">
            <mxPoint x="295" y="330" as="sourcePoint" />
            <mxPoint x="355" y="330" as="targetPoint" />
          </mxGeometry>
        </mxCell>
        <mxCell id="uxEyV9D7KYgsBCDAAckX-37" value="" style="endArrow=classic;html=1;rounded=0;" edge="1" parent="1">
          <mxGeometry width="50" height="50" relative="1" as="geometry">
            <mxPoint x="300" y="464.5" as="sourcePoint" />
            <mxPoint x="370" y="464.5" as="targetPoint" />
          </mxGeometry>
        </mxCell>
        <mxCell id="uxEyV9D7KYgsBCDAAckX-38" value="Taking people&amp;nbsp;&lt;div&gt;for a ride&lt;/div&gt;" style="text;html=1;align=center;verticalAlign=middle;resizable=0;points=[];autosize=1;strokeColor=#9673a6;fillColor=#e1d5e7;" vertex="1" parent="1">
          <mxGeometry x="370" y="445" width="100" height="40" as="geometry" />
        </mxCell>
      </root>
    </mxGraphModel>
  </diagram>
</mxfile>
